<svg width="35" height="35" viewBox="0 0 35 35" fill="none" xmlns="http://www.w3.org/2000/svg">
<path d="M3.28125 4.375H5.3025C6.04625 4.375 6.69521 4.87521 6.88771 5.59271L7.44625 7.68833M7.44625 7.68833C15.5701 7.46067 23.6862 8.36376 31.5613 10.3717C30.3596 13.9504 28.9319 17.4271 27.2971 20.7813H10.9375M7.44625 7.68833L10.9375 20.7813M10.9375 20.7813C9.77718 20.7813 8.66438 21.2422 7.84391 22.0627C7.02344 22.8831 6.5625 23.9959 6.5625 25.1563H29.5313M8.75 29.5313C8.75 29.8213 8.63477 30.0995 8.42965 30.3046C8.22453 30.5098 7.94633 30.625 7.65625 30.625C7.36617 30.625 7.08797 30.5098 6.88285 30.3046C6.67773 30.0995 6.5625 29.8213 6.5625 29.5313C6.5625 29.2412 6.67773 28.963 6.88285 28.7579C7.08797 28.5527 7.36617 28.4375 7.65625 28.4375C7.94633 28.4375 8.22453 28.5527 8.42965 28.7579C8.63477 28.963 8.75 29.2412 8.75 29.5313ZM27.3438 29.5313C27.3438 29.8213 27.2285 30.0995 27.0234 30.3046C26.8183 30.5098 26.5401 30.625 26.25 30.625C25.9599 30.625 25.6817 30.5098 25.4766 30.3046C25.2715 30.0995 25.1563 29.8213 25.1563 29.5313C25.1563 29.2412 25.2715 28.963 25.4766 28.7579C25.6817 28.5527 25.9599 28.4375 26.25 28.4375C26.5401 28.4375 26.8183 28.5527 27.0234 28.7579C27.2285 28.963 27.3438 29.2412 27.3438 29.5313Z" stroke="url(#paint0_linear_102_787)" stroke-width="1.5" stroke-linecap="round" stroke-linejoin="round"/>
<defs>
<linearGradient id="paint0_linear_102_787" x1="17.4213" y1="4.375" x2="17.4213" y2="30.625" gradientUnits="userSpaceOnUse">
<stop stop-color="#2F94FD"/>
<stop offset="1" stop-color="#3EBEFD"/>
</linearGradient>
</defs>
</svg>
