<svg width="40" height="40" viewBox="0 0 40 40" fill="none" xmlns="http://www.w3.org/2000/svg">
<rect x="0.5" y="0.5" width="38.3333" height="38.3333" rx="3.5" stroke="#46494E"/>
<path d="M19.6667 3C10.4617 3 3 10.4617 3 19.6667C3 28.8717 10.4617 36.3333 19.6667 36.3333C28.8717 36.3333 36.3333 28.8717 36.3333 19.6667C36.3333 10.4617 28.8717 3 19.6667 3Z" fill="url(#paint0_linear_48_167)"/>
<path d="M21.8849 24.0105H26.1263L26.7925 19.7019H21.8849V17.3468C21.8849 15.5571 22.47 13.9698 24.1441 13.9698H26.8343V10.2102C26.3615 10.1463 25.3618 10.007 23.473 10.007C19.5282 10.007 17.2157 12.09 17.2157 16.8363V19.7027H13.1603V24.0113H17.2149V35.8539C18.0179 35.9735 18.8317 36.0555 19.6667 36.0555C20.4214 36.0555 21.1581 35.9867 21.8849 35.8883V24.0105Z" fill="white"/>
<defs>
<linearGradient id="paint0_linear_48_167" x1="7.99416" y1="7.99416" x2="33.5125" y2="33.5125" gradientUnits="userSpaceOnUse">
<stop stop-color="#2AA4F4"/>
<stop offset="1" stop-color="#007AD9"/>
</linearGradient>
</defs>
</svg>
