<svg width="30" height="31" viewBox="0 0 30 31" fill="none" xmlns="http://www.w3.org/2000/svg">
<path d="M26.7857 0.143066H3.21429C2.3618 0.143066 1.54424 0.481714 0.941442 1.08451C0.338647 1.68731 0 2.50487 0 3.35735L0 26.9288C0 27.7813 0.338647 28.5988 0.941442 29.2016C1.54424 29.8044 2.3618 30.1431 3.21429 30.1431H12.4051V19.9437H8.18638V15.1431H12.4051V11.4841C12.4051 7.32231 14.8828 5.02343 18.6777 5.02343C20.4951 5.02343 22.3955 5.34753 22.3955 5.34753V9.43236H20.3016C18.2384 9.43236 17.5949 10.7127 17.5949 12.0259V15.1431H22.2007L21.4641 19.9437H17.5949V30.1431H26.7857C27.6382 30.1431 28.4558 29.8044 29.0586 29.2016C29.6614 28.5988 30 27.7813 30 26.9288V3.35735C30 2.50487 29.6614 1.68731 29.0586 1.08451C28.4558 0.481714 27.6382 0.143066 26.7857 0.143066Z" fill="#252C30"/>
</svg>
