<svg width="40" height="40" viewBox="0 0 40 40" fill="none" xmlns="http://www.w3.org/2000/svg">
<rect x="0.5" y="0.5" width="39" height="39" rx="3.5" stroke="#46494E"/>
<path d="M34.718 16.6602H33.55V16.6H20.5V22.4H28.6947C27.4992 25.7763 24.2867 28.2 20.5 28.2C15.6954 28.2 11.8 24.3046 11.8 19.5C11.8 14.6954 15.6954 10.8 20.5 10.8C22.7178 10.8 24.7355 11.6367 26.2717 13.0033L30.3731 8.90195C27.7833 6.48843 24.3193 5 20.5 5C12.4924 5 6 11.4924 6 19.5C6 27.5076 12.4924 34 20.5 34C28.5076 34 35 27.5076 35 19.5C35 18.5278 34.9 17.5788 34.718 16.6602Z" fill="#FBC02D"/>
<path d="M8 13.2716L12.6168 17C13.8661 13.5942 16.8915 11.1896 20.4319 11.1896C22.5812 11.1896 24.5365 12.0824 26.0254 13.5408L30 9.16402C27.4903 6.58839 24.1332 5 20.4319 5C15.0345 5 10.3537 8.35551 8 13.2716Z" fill="#E53935"/>
<path d="M20.5492 34C24.1902 34 27.4986 32.6362 30 30.4184L25.6372 26.8051C24.222 27.8543 22.4627 28.4814 20.5492 28.4814C16.8827 28.4814 13.7696 26.1932 12.5968 23L8 26.4664C10.3329 30.9344 15.0707 34 20.5492 34Z" fill="#4CAF50"/>
<path d="M34.7083 17.0573L34.6963 17H33.5H20V22.5236H28.4773C27.8833 24.0682 26.804 25.4 25.412 26.3701L25.4142 26.3687L30.0568 29.9853C29.7283 30.2601 35 26.6663 35 19.7618C35 18.8359 34.8965 17.9321 34.7083 17.0573Z" fill="#1565C0"/>
</svg>
