<svg width="20" height="20" viewBox="0 0 20 20" fill="none" xmlns="http://www.w3.org/2000/svg">
<path d="M9.55812 3.20084C9.67531 3.08379 9.83416 3.01805 9.99979 3.01805C10.1654 3.01805 10.3243 3.08379 10.4415 3.20084L17.6831 10.4425C17.7408 10.5022 17.8098 10.5497 17.8861 10.5825C17.9623 10.6152 18.0443 10.6324 18.1273 10.6331C18.2103 10.6338 18.2926 10.6179 18.3694 10.5864C18.4462 10.555 18.516 10.5085 18.5746 10.4498C18.6333 10.3911 18.6796 10.3213 18.711 10.2445C18.7424 10.1677 18.7582 10.0854 18.7574 10.0024C18.7567 9.91938 18.7394 9.83738 18.7066 9.76114C18.6738 9.68491 18.6262 9.61596 18.5665 9.55834L11.3256 2.31667C11.1515 2.14256 10.9448 2.00444 10.7173 1.91021C10.4898 1.81599 10.246 1.76749 9.99979 1.76749C9.75356 1.76749 9.50974 1.81599 9.28225 1.91021C9.05477 2.00444 8.84807 2.14256 8.67396 2.31667L1.43229 9.55834C1.37262 9.61602 1.32504 9.68501 1.29232 9.76127C1.2596 9.83754 1.2424 9.91956 1.24172 10.0025C1.24104 10.0855 1.25689 10.1678 1.28835 10.2446C1.31981 10.3214 1.36626 10.3912 1.42497 10.4498C1.48368 10.5085 1.55348 10.5549 1.6303 10.5863C1.70713 10.6176 1.78944 10.6334 1.87242 10.6327C1.95541 10.6319 2.03741 10.6146 2.11365 10.5818C2.18989 10.549 2.25883 10.5014 2.31646 10.4417L9.55812 3.20084Z" fill="#252C30"/>
<path d="M10 4.52667L16.7992 11.3258C16.8242 11.3508 16.8492 11.3742 16.875 11.3975V16.5625C16.875 17.425 16.175 18.125 15.3125 18.125H12.5C12.3342 18.125 12.1753 18.0592 12.0581 17.9419C11.9408 17.8247 11.875 17.6658 11.875 17.5V13.75C11.875 13.5842 11.8092 13.4253 11.6919 13.3081C11.5747 13.1909 11.4158 13.125 11.25 13.125H8.75C8.58424 13.125 8.42527 13.1909 8.30806 13.3081C8.19085 13.4253 8.125 13.5842 8.125 13.75V17.5C8.125 17.6658 8.05915 17.8247 7.94194 17.9419C7.82473 18.0592 7.66576 18.125 7.5 18.125H4.6875C4.2731 18.125 3.87567 17.9604 3.58265 17.6674C3.28962 17.3743 3.125 16.9769 3.125 16.5625V11.3975C3.15093 11.3743 3.17621 11.3504 3.20083 11.3258L10 4.52667Z" fill="#46494E"/>
</svg>
