<svg width="30" height="31" viewBox="0 0 30 31" fill="none" xmlns="http://www.w3.org/2000/svg">
<path d="M15.0067 7.44217C10.7478 7.44217 7.31252 10.8774 7.31252 15.1364C7.31252 19.3953 10.7478 22.8306 15.0067 22.8306C19.2657 22.8306 22.7009 19.3953 22.7009 15.1364C22.7009 10.8774 19.2657 7.44217 15.0067 7.44217ZM15.0067 20.1386C12.2545 20.1386 10.0045 17.8953 10.0045 15.1364C10.0045 12.3774 12.2478 10.1341 15.0067 10.1341C17.7657 10.1341 20.009 12.3774 20.009 15.1364C20.009 17.8953 17.759 20.1386 15.0067 20.1386ZM24.8103 7.12744C24.8103 8.1252 24.0067 8.92208 23.0157 8.92208C22.0179 8.92208 21.221 8.11851 21.221 7.12744C21.221 6.13637 22.0246 5.3328 23.0157 5.3328C24.0067 5.3328 24.8103 6.13637 24.8103 7.12744ZM29.9063 8.94886C29.7924 6.54485 29.2433 4.41539 27.4822 2.66092C25.7277 0.906459 23.5982 0.357352 21.1942 0.236816C18.7165 0.0961914 11.2902 0.0961914 8.81252 0.236816C6.4152 0.350656 4.28573 0.899762 2.52457 2.65423C0.763411 4.40869 0.221 6.53815 0.100464 8.94217C-0.0401612 11.4198 -0.0401612 18.8462 0.100464 21.3239C0.214303 23.7279 0.763411 25.8573 2.52457 27.6118C4.28573 29.3663 6.4085 29.9154 8.81252 30.0359C11.2902 30.1765 18.7165 30.1765 21.1942 30.0359C23.5982 29.9221 25.7277 29.373 27.4822 27.6118C29.2366 25.8573 29.7858 23.7279 29.9063 21.3239C30.0469 18.8462 30.0469 11.4265 29.9063 8.94886ZM26.7054 23.9823C26.1831 25.2948 25.1719 26.306 23.8527 26.835C21.8773 27.6185 17.1898 27.4377 15.0067 27.4377C12.8237 27.4377 8.12949 27.6118 6.16074 26.835C4.84823 26.3127 3.83707 25.3015 3.30806 23.9823C2.52457 22.0069 2.70538 17.3194 2.70538 15.1364C2.70538 12.9533 2.53127 8.25913 3.30806 6.29038C3.83038 4.97788 4.84154 3.96672 6.16074 3.43771C8.13618 2.65423 12.8237 2.83503 15.0067 2.83503C17.1898 2.83503 21.884 2.66092 23.8527 3.43771C25.1652 3.96003 26.1764 4.97119 26.7054 6.29038C27.4889 8.26583 27.3081 12.9533 27.3081 15.1364C27.3081 17.3194 27.4889 22.0136 26.7054 23.9823Z" fill="#252C30"/>
</svg>
