<svg width="35" height="35" viewBox="0 0 35 35" fill="none" xmlns="http://www.w3.org/2000/svg">
<path d="M30.625 16.4063V28.4375C30.625 29.0177 30.3945 29.5741 29.9843 29.9843C29.5741 30.3945 29.0177 30.625 28.4375 30.625H7.65625C7.07609 30.625 6.51969 30.3945 6.10945 29.9843C5.69922 29.5741 5.46875 29.0177 5.46875 28.4375V16.4063M17.5 7.10938C17.5 6.35224 17.2755 5.61212 16.8548 4.98258C16.4342 4.35305 15.8363 3.86239 15.1368 3.57265C14.4373 3.28291 13.6676 3.2071 12.925 3.35481C12.1825 3.50252 11.5004 3.86711 10.965 4.40248C10.4296 4.93786 10.065 5.61996 9.91731 6.36255C9.7696 7.10513 9.84541 7.87484 10.1351 8.57434C10.4249 9.27383 10.9156 9.87171 11.5451 10.2923C12.1746 10.713 12.9147 10.9375 13.6719 10.9375H17.5M17.5 7.10938V10.9375M17.5 7.10938C17.5 6.35224 17.7245 5.61212 18.1452 4.98258C18.5658 4.35305 19.1637 3.86239 19.8632 3.57265C20.5627 3.28291 21.3324 3.2071 22.075 3.35481C22.8175 3.50252 23.4996 3.86711 24.035 4.40248C24.5704 4.93786 24.935 5.61996 25.0827 6.36255C25.2304 7.10513 25.1546 7.87484 24.8649 8.57434C24.5751 9.27383 24.0845 9.87171 23.4549 10.2923C22.8254 10.713 22.0853 10.9375 21.3281 10.9375H17.5M17.5 10.9375V30.625M4.92188 16.4063H31.1719C32.0775 16.4063 32.8125 15.6713 32.8125 14.7656V12.5781C32.8125 11.6725 32.0775 10.9375 31.1719 10.9375H4.92188C4.01625 10.9375 3.28125 11.6725 3.28125 12.5781V14.7656C3.28125 15.6713 4.01625 16.4063 4.92188 16.4063Z" stroke="url(#paint0_linear_102_781)" stroke-width="1.5" stroke-linecap="round" stroke-linejoin="round"/>
<defs>
<linearGradient id="paint0_linear_102_781" x1="18.0469" y1="3.28125" x2="18.0469" y2="30.625" gradientUnits="userSpaceOnUse">
<stop stop-color="#2F94FD"/>
<stop offset="1" stop-color="#3EBEFD"/>
</linearGradient>
</defs>
</svg>
