<svg width="35" height="35" viewBox="0 0 35 35" fill="none" xmlns="http://www.w3.org/2000/svg">
<path d="M17.5 5.46875V29.5313M3.28125 17.5H31.7188M9.29688 25.1563C11.1824 25.1563 12.9907 24.4072 14.324 23.074C15.6572 21.7407 16.4063 19.9324 16.4063 18.0469V17.5M25.7031 25.1563C23.8176 25.1563 22.0093 24.4072 20.676 23.074C19.3428 21.7407 18.5938 19.9324 18.5938 18.0469V17.5M5.46875 29.5313H29.5313C30.1114 29.5313 30.6678 29.3008 31.078 28.8905C31.4883 28.4803 31.7188 27.9239 31.7188 27.3438V7.65625C31.7188 7.07609 31.4883 6.51969 31.078 6.10945C30.6678 5.69922 30.1114 5.46875 29.5313 5.46875H5.46875C4.88859 5.46875 4.33219 5.69922 3.92195 6.10945C3.51172 6.51969 3.28125 7.07609 3.28125 7.65625V27.3438C3.28125 27.9239 3.51172 28.4803 3.92195 28.8905C4.33219 29.3008 4.88859 29.5313 5.46875 29.5313ZM23.8744 15.7646C21.8196 17.8208 17.6881 17.3119 17.6881 17.3119C17.6881 17.3119 17.1792 13.1804 19.234 11.1256C19.8493 10.5103 20.6839 10.1646 21.5542 10.1646C22.4244 10.1646 23.259 10.5103 23.8744 11.1256C24.4897 11.741 24.8354 12.5756 24.8354 13.4458C24.8354 14.3161 24.4897 15.1492 23.8744 15.7646ZM15.7106 11.1271C17.7654 13.1819 17.2565 17.3133 17.2565 17.3133C17.2565 17.3133 13.125 17.8208 11.0717 15.766C10.767 15.4613 10.5253 15.0996 10.3604 14.7015C10.1955 14.3034 10.1106 13.8767 10.1106 13.4458C10.1106 13.0149 10.1955 12.5882 10.3604 12.1901C10.5253 11.792 10.767 11.4303 11.0717 11.1256C11.3764 10.8209 11.7381 10.5792 12.1362 10.4143C12.5343 10.2494 12.961 10.1646 13.3919 10.1646C13.8228 10.1646 14.2495 10.2494 14.6476 10.4143C15.0457 10.5792 15.4074 10.8209 15.7121 11.1256L15.7106 11.1271Z" stroke="url(#paint0_linear_102_797)" stroke-width="1.5" stroke-linecap="round" stroke-linejoin="round"/>
<defs>
<linearGradient id="paint0_linear_102_797" x1="17.5" y1="5.46875" x2="17.5" y2="29.5312" gradientUnits="userSpaceOnUse">
<stop stop-color="#2F94FD"/>
<stop offset="1" stop-color="#3EBEFD"/>
</linearGradient>
</defs>
</svg>
