<svg width="30" height="35" viewBox="0 0 30 35" fill="none" xmlns="http://www.w3.org/2000/svg">
<path d="M26.7857 2.14307H3.21429C1.43973 2.14307 0 3.5828 0 5.35735V28.9288C0 30.7033 1.43973 32.1431 3.21429 32.1431H26.7857C28.5603 32.1431 30 30.7033 30 28.9288V5.35735C30 3.5828 28.5603 2.14307 26.7857 2.14307ZM23.5112 12.777C23.5246 12.9645 23.5246 13.1587 23.5246 13.3462C23.5246 19.152 19.1049 25.8417 11.029 25.8417C8.53795 25.8417 6.22768 25.1185 4.28571 23.873C4.64062 23.9131 4.98214 23.9265 5.34375 23.9265C7.39955 23.9265 9.28795 23.2301 10.7946 22.0515C8.86607 22.0114 7.24554 20.7457 6.68973 19.0047C7.36607 19.1051 7.97545 19.1051 8.67188 18.9243C6.66295 18.5158 5.15625 16.748 5.15625 14.6118V14.5582C5.73884 14.8864 6.42187 15.0873 7.13839 15.114C6.536 14.7134 6.04218 14.1698 5.70098 13.5318C5.35979 12.8938 5.18185 12.1813 5.18304 11.4578C5.18304 10.6408 5.39732 9.89083 5.77902 9.24128C7.94196 11.9065 11.1897 13.6475 14.8326 13.835C14.2098 10.8551 16.4397 8.43771 19.1183 8.43771C20.3839 8.43771 21.5223 8.96672 22.3259 9.82387C23.317 9.63637 24.2679 9.26806 25.1116 8.76583C24.7835 9.78369 24.0938 10.6408 23.183 11.1832C24.067 11.0895 24.9241 10.8417 25.7143 10.5002C25.1183 11.3774 24.3683 12.1542 23.5112 12.777Z" fill="#252C30"/>
</svg>
