<svg width="35" height="35" viewBox="0 0 35 35" fill="none" xmlns="http://www.w3.org/2000/svg">
<path d="M22.9688 8.75C22.9688 10.2004 22.3926 11.5914 21.367 12.617C20.3414 13.6426 18.9504 14.2187 17.5 14.2187C16.0496 14.2187 14.6586 13.6426 13.633 12.617C12.6074 11.5914 12.0313 10.2004 12.0313 8.75C12.0313 7.2996 12.6074 5.9086 13.633 4.88301C14.6586 3.85742 16.0496 3.28125 17.5 3.28125C18.9504 3.28125 20.3414 3.85742 21.367 4.88301C22.3926 5.9086 22.9688 7.2996 22.9688 8.75ZM6.56396 29.3387C6.61083 26.4693 7.78362 23.7331 9.82943 21.7205C11.8752 19.7078 14.6301 18.5798 17.5 18.5798C20.3699 18.5798 23.1248 19.7078 25.1706 21.7205C27.2164 23.7331 28.3892 26.4693 28.436 29.3387C25.0052 30.9119 21.2744 31.7239 17.5 31.7187C13.5975 31.7187 9.89334 30.8671 6.56396 29.3387Z" stroke="url(#paint0_linear_102_804)" stroke-width="1.5" stroke-linecap="round" stroke-linejoin="round"/>
<defs>
<linearGradient id="paint0_linear_102_804" x1="17.5" y1="3.28125" x2="17.5" y2="31.7188" gradientUnits="userSpaceOnUse">
<stop stop-color="#2F94FD"/>
<stop offset="1" stop-color="#3EBEFD"/>
</linearGradient>
</defs>
</svg>
