<svg width="60" height="25" viewBox="0 0 60 25" fill="none" xmlns="http://www.w3.org/2000/svg">
<path d="M0.769287 7.00195C0.930059 7.01657 1.09246 7.04526 1.26568 7.04526C1.42862 7.04526 1.57694 7.01657 1.76207 7.00195V12.3156C2.2839 11.424 2.94215 10.8361 3.90949 10.8361C5.65796 10.8361 6.41581 12.5716 6.41581 14.1647C6.41581 16.074 5.39704 17.8987 3.61122 17.8987C2.59408 17.8987 2.07279 17.2692 1.84814 16.8784C1.55095 17.1366 1.2895 17.4532 1.00422 17.7391H0.769287V7.00195ZM1.73609 14.8111C1.73609 16.3609 2.39487 17.4392 3.47264 17.4392C4.87737 17.4392 5.32342 15.5597 5.32342 14.2226C5.32342 12.6734 4.81458 11.4522 3.59931 11.4375C2.18484 11.424 1.73609 13.1037 1.73609 14.8111Z" fill="#DF146E"/>
<path d="M10.9818 10.4389L9.92676 11.7943C10.9185 13.2456 11.9475 14.6628 12.943 16.1292L13.9455 17.7039V17.7835C13.6987 17.7683 13.474 17.7369 13.2624 17.7369C13.028 17.7369 12.7931 17.7683 12.5695 17.7835C12.2961 17.279 12.0217 16.8075 11.712 16.349L9.00489 12.3313C8.94427 12.2674 8.7954 12.2209 8.7954 12.2831V17.7829C8.59728 17.7678 8.4246 17.7364 8.25029 17.7364C8.06408 17.7364 7.87787 17.7678 7.7041 17.7829V7.00201C7.87732 7.0177 8.06408 7.05072 8.25029 7.05072C8.42406 7.05072 8.59728 7.0177 8.7954 7.00201V11.8728C8.80894 11.9659 8.98162 11.9042 9.10558 11.7792C9.33131 11.5583 9.59006 11.2259 9.76329 11.0072L12.8169 7.00146C12.9771 7.01716 13.1373 7.05018 13.3143 7.05018C13.4621 7.05018 13.6224 7.01716 13.7967 7.00146L10.9818 10.4389ZM19.1963 16.5763C19.1963 17.1366 19.1584 17.4257 19.8914 17.2384V17.5534C19.8032 17.5973 19.6548 17.6676 19.5195 17.6969C18.8737 17.8268 18.3383 17.7126 18.2398 16.8649L18.1294 16.9942C17.6086 17.5973 17.0386 17.8988 16.2905 17.8988C15.4125 17.8988 14.6433 17.2097 14.6433 16.1455C14.6433 14.5101 15.7692 14.2936 16.9379 14.0787C17.9194 13.8909 18.2517 13.8075 18.2517 13.1178C18.2517 12.0569 17.7315 11.4376 16.8005 11.4376C15.8959 11.4376 15.4125 12.1132 15.3232 12.4293H15.1873V11.6243C15.7828 11.1529 16.4545 10.8362 17.1848 10.8362C18.4894 10.8362 19.1963 11.6243 19.1963 13.2478V16.5763ZM18.2025 14.2081L17.7673 14.3093C16.9255 14.4944 15.6572 14.6395 15.6572 15.9457C15.6572 16.8486 16.12 17.2952 16.8746 17.2952C17.2092 17.2952 17.6314 17.0235 17.8652 16.7501C17.9556 16.6494 18.203 16.4037 18.203 16.3041L18.2025 14.2081ZM21.406 16.3896C21.7021 16.952 22.2494 17.4533 22.8297 17.4533C23.4392 17.4533 24.0482 16.906 24.0482 16.1455C24.0482 14.2081 21.1186 15.4721 21.1186 12.9598C21.1186 11.5816 22.0253 10.8362 23.1426 10.8362C23.7873 10.8362 24.321 11.05 24.544 11.2081C24.4212 11.5383 24.3216 11.8826 24.2474 12.2285H24.1353C23.974 11.7548 23.5399 11.2784 23.0792 11.2784C22.4605 11.2784 21.9511 11.698 21.9511 12.4721C21.9511 14.3093 24.8802 13.3322 24.8802 15.6301C24.8802 17.1658 23.6898 17.8988 22.5958 17.8988C22.0886 17.8988 21.478 17.7391 21.0439 17.4392C21.1446 17.0949 21.2561 16.7507 21.3064 16.3896H21.406ZM26.555 7.00201C26.7164 7.01662 26.8761 7.04531 27.0504 7.04531C27.2138 7.04531 27.3616 7.01662 27.5467 7.00201V12.2285C27.9803 11.351 28.6646 10.8362 29.5458 10.8362C30.9836 10.8362 31.5428 11.8263 31.5428 13.6343V17.784C31.3549 17.7689 31.2072 17.7391 31.0469 17.7391C30.8721 17.7391 30.7108 17.7694 30.5489 17.784V13.9639C30.5489 12.3708 30.2268 11.581 29.1729 11.581C28.0556 11.581 27.5473 12.3865 27.5473 13.8762V17.784C27.3627 17.7689 27.2149 17.7391 27.0509 17.7391C26.8771 17.7391 26.7169 17.7694 26.5556 17.784V7.00201H26.555Z" fill="#221F1F"/>
<path d="M58.0485 24.3213H36.3264C35.6763 24.3213 35.1453 23.7892 35.1453 23.1391V1.52903C35.1453 0.87728 35.6763 0.345703 36.3264 0.345703H58.0485C58.6997 0.345703 59.2307 0.87728 59.2307 1.52903V23.1391C59.2307 23.7892 58.6997 24.3213 58.0485 24.3213Z" fill="#DF146E"/>
<path d="M52.4102 13.4734L44.7738 12.2576L45.8072 16.7663L52.4102 13.4734ZM52.7199 13.1042L46.7156 4.76302L44.7544 11.8576L52.7199 13.1042ZM44.3825 11.7607L38.0907 3.72314L46.3301 4.70781L44.3825 11.7607ZM41.33 8.42939L37.839 5.13816H38.7565L41.33 8.42939ZM54.5945 9.05191L53.1172 13.0593L50.7213 9.74751L54.5945 9.05191ZM46.7388 16.7111L52.5364 14.3834L52.7821 13.6445L46.7388 16.7111ZM41.9032 20.9447L44.3873 12.2284L45.6464 17.9009L41.9032 20.9447ZM54.9485 9.08222L54.3379 10.7365L56.5351 10.6986L54.9485 9.08222Z" fill="white"/>
</svg>
