<svg width="50" height="50" viewBox="0 0 50 50" fill="none" xmlns="http://www.w3.org/2000/svg">
<path d="M16.0528 25.6883H15.811C15.2282 25.6883 14.9368 25.8867 14.9368 26.2836C14.9368 26.5564 15.0608 26.6928 15.3088 26.6928C15.5195 26.6928 15.6931 26.5998 15.8296 26.4139C15.9661 26.2279 16.0404 25.986 16.0528 25.6883ZM23.4003 25.0187H24.5536V24.963C24.5655 24.9134 24.569 24.8732 24.5643 24.8422C24.5571 24.8113 24.5512 24.7678 24.5464 24.7119C24.5393 24.6562 24.5269 24.6065 24.5093 24.563C24.4902 24.5196 24.4624 24.4793 24.4257 24.4419C24.3886 24.4047 24.342 24.3738 24.2861 24.349C24.2303 24.3243 24.159 24.3119 24.0721 24.3119C23.7249 24.3119 23.4995 24.5474 23.4003 25.0187ZM33.4449 25.6883H33.2217C32.6265 25.6883 32.3288 25.8867 32.3288 26.2836C32.3288 26.5564 32.4529 26.6928 32.7009 26.6928C32.9116 26.6928 33.0852 26.5998 33.2217 26.4139C33.3581 26.2279 33.4325 25.986 33.4449 25.6883ZM39.3787 25.2047C39.3787 24.6962 39.1927 24.442 38.8207 24.442C38.5849 24.442 38.3927 24.566 38.244 24.8141C38.0952 25.0621 38.0208 25.3783 38.0208 25.7627C38.0208 26.2835 38.1944 26.544 38.5417 26.544C38.7897 26.544 38.9912 26.42 39.1462 26.172C39.3012 25.9239 39.3787 25.6015 39.3787 25.2047ZM12.5 22.5819H14.1183L13.2998 27.4554H12.2582L12.8534 23.7166L11.5327 27.4554H10.8073L10.733 23.7352L10.1006 27.4554H9.11466L9.93313 22.5819H11.4398L11.477 25.6139L12.5 22.5819ZM17.2061 24.5722C17.2061 24.6465 17.1813 24.9069 17.1318 25.3535C16.9335 26.606 16.8281 27.3066 16.8157 27.4554H15.9415L15.9593 27.0462C15.7113 27.3686 15.3517 27.5298 14.8805 27.5298C14.5952 27.5298 14.3627 27.4307 14.1829 27.2323C14.0031 27.034 13.9133 26.7736 13.9133 26.4511C13.9133 25.9674 14.0745 25.5923 14.3969 25.3257C14.7193 25.0591 15.172 24.9258 15.7548 24.9258C15.9284 24.9258 16.071 24.9317 16.1826 24.9436C16.1826 24.9065 16.1862 24.8724 16.1933 24.8415C16.2005 24.8105 16.2064 24.7827 16.2112 24.7579C16.2183 24.7332 16.2219 24.7146 16.2219 24.7022C16.2219 24.4542 15.9987 24.3302 15.5523 24.3302C15.1926 24.3302 14.8268 24.3922 14.4548 24.5162C14.4548 24.4667 14.4982 24.1691 14.5851 23.6234C15.0564 23.487 15.4718 23.4187 15.8314 23.4187C16.7491 23.4187 17.2061 23.8034 17.2061 24.5722ZM20.1079 23.4934L19.9589 24.4048C19.6861 24.3677 19.4319 24.3491 19.1963 24.3491C18.8615 24.3491 18.6941 24.4545 18.6941 24.6652C18.6941 24.7645 18.7219 24.8389 18.7777 24.8884C18.8334 24.9379 18.9667 25.0061 19.1776 25.093C19.6736 25.3287 19.9216 25.7008 19.9216 26.2091C19.9216 27.102 19.3822 27.5422 18.3033 27.5298C17.8817 27.5298 17.5221 27.4926 17.2245 27.4184C17.2245 27.3936 17.2679 27.0898 17.3548 26.5069C17.7145 26.6062 18.0307 26.6559 18.3035 26.6559C18.7003 26.6559 18.8987 26.538 18.8987 26.3023C18.8987 26.2154 18.8709 26.1441 18.8152 26.0884C18.7594 26.0326 18.6261 25.9551 18.4152 25.8559C17.882 25.6079 17.6154 25.242 17.6154 24.7584C17.6154 23.8655 18.1362 23.4191 19.1779 23.4191C19.5499 23.4191 19.8598 23.4439 20.1079 23.4934ZM21.7448 23.4934H22.2656L22.1353 24.4606H21.5958C21.5711 24.6714 21.5307 24.9225 21.4748 25.214C21.4191 25.5054 21.3756 25.7441 21.3444 25.9301C21.3135 26.1161 21.298 26.2276 21.298 26.2648C21.298 26.4631 21.4158 26.5623 21.6516 26.5623C21.7508 26.5623 21.85 26.5499 21.9491 26.5251L21.8001 27.3994C21.5397 27.4863 21.2917 27.5298 21.0561 27.5298C20.5228 27.5298 20.2438 27.2384 20.219 26.6555C20.219 26.5067 20.2687 26.1595 20.3679 25.6139C20.4051 25.3659 20.5601 24.4606 20.833 22.8981H21.8561L21.7448 23.4934ZM25.5208 24.8512C25.5208 25.1365 25.4774 25.4589 25.3904 25.8185H23.3257C23.2886 26.0913 23.3506 26.296 23.5118 26.4324C23.673 26.5688 23.9086 26.637 24.2186 26.637C24.5906 26.637 24.9503 26.5502 25.2975 26.3766L25.13 27.3811C24.758 27.4804 24.4045 27.53 24.0697 27.53C22.8916 27.53 22.3026 26.941 22.3026 25.7629C22.3026 25.0809 22.4731 24.5197 22.8141 24.0795C23.1551 23.6393 23.5861 23.4192 24.1069 23.4192C24.5409 23.4192 24.8851 23.5494 25.1393 23.8098C25.3935 24.0702 25.5208 24.4172 25.5208 24.8512ZM28.1064 23.4748C27.9452 23.76 27.8088 24.1444 27.6972 24.628C27.4243 24.6033 27.2321 24.7521 27.1205 25.0745C27.0089 25.3969 26.8538 26.1905 26.6555 27.4554H25.6138L25.6696 27.1951C25.9424 25.583 26.1222 24.3491 26.209 23.4935H27.1577L27.1019 24.1073C27.2755 23.8469 27.4336 23.664 27.5763 23.5585C27.7189 23.4531 27.8956 23.425 28.1064 23.4748ZM31.5848 22.7121L31.4173 23.7724C31.0701 23.5988 30.7601 23.512 30.4873 23.512C30.1028 23.512 29.7866 23.6825 29.5386 24.0236C29.2906 24.3646 29.1666 24.8017 29.1666 25.335C29.1666 25.707 29.2503 25.9984 29.4177 26.2092C29.585 26.4199 29.8238 26.5253 30.1338 26.5253C30.3942 26.5253 30.6919 26.4447 31.0267 26.2835L30.8406 27.381C30.4934 27.4802 30.1833 27.5299 29.9105 27.5299C29.3525 27.5299 28.9091 27.3408 28.5805 26.9626C28.2519 26.5844 28.0876 26.0728 28.0876 25.428C28.0876 24.5599 28.3077 23.85 28.7479 23.2981C29.1882 22.7463 29.7555 22.4704 30.4499 22.4704C30.7724 22.4704 31.1508 22.5509 31.5848 22.7121ZM34.5982 24.5722C34.5982 24.7953 34.5734 25.0558 34.5239 25.3535C34.3627 26.3332 34.2574 27.0338 34.2078 27.4554H33.3522L33.3701 27.0462C33.122 27.3686 32.7562 27.5298 32.2726 27.5298C31.9874 27.5298 31.758 27.4307 31.5843 27.2323C31.4108 27.034 31.324 26.7736 31.324 26.4511C31.324 25.9674 31.4821 25.5923 31.7983 25.3257C32.1146 25.0591 32.5641 24.9258 33.1469 24.9258C33.3329 24.9258 33.4755 24.9317 33.5747 24.9436C33.5995 24.8567 33.6119 24.7761 33.6119 24.7019C33.6119 24.4538 33.3887 24.3298 32.9422 24.3298C32.5826 24.3298 32.2168 24.3918 31.8448 24.5159C31.8448 24.4664 31.8944 24.1687 31.9937 23.623C32.4649 23.4866 32.8804 23.4184 33.24 23.4184C34.1452 23.4184 34.5982 23.8034 34.5982 24.5722ZM37.221 23.4748C37.0474 23.7724 36.9172 24.1568 36.8303 24.628C36.5451 24.6033 36.3498 24.7459 36.2444 25.0559C36.1389 25.3659 35.9808 26.1657 35.7701 27.4554H34.7284L34.7841 27.1951C35.0198 25.9054 35.1996 24.6715 35.3236 23.4935H36.2908C36.2908 23.6299 36.2661 23.8345 36.2166 24.1073C36.4025 23.8469 36.5668 23.664 36.7095 23.5585C36.8521 23.4531 37.0226 23.425 37.221 23.4748ZM39.8437 22.5819H40.8854L40.0856 27.4554H39.0997L39.1554 27.1019C38.8702 27.3871 38.5478 27.5297 38.1882 27.5297C37.8037 27.5297 37.4968 27.3809 37.2674 27.0832C37.0379 26.7856 36.9231 26.3888 36.9231 25.8928C36.9231 25.2355 37.0936 24.6651 37.4347 24.1815C37.7757 23.6978 38.1756 23.456 38.6344 23.456C39.0189 23.456 39.3475 23.6358 39.6203 23.9955L39.8437 22.5819ZM41.9084 25.0001C41.9084 23.1648 41.4589 21.472 40.5599 19.9219C39.6608 18.3718 38.4331 17.1442 36.8768 16.2389C35.3206 15.3337 33.6247 14.881 31.7894 14.881C29.5449 14.881 27.5111 15.5631 25.6882 16.9271C27.2631 18.3656 28.3234 20.1266 28.869 22.2099H27.939C27.3933 20.3498 26.4137 18.7811 25 17.5038C23.5863 18.7811 22.6066 20.3498 22.061 22.2099H21.1309C21.6766 20.1266 22.7368 18.3656 24.3117 16.9271C22.4888 15.5631 20.4551 14.881 18.2106 14.881C16.3752 14.881 14.6794 15.3337 13.1231 16.2389C11.5668 17.1442 10.3391 18.3718 9.44009 19.9219C8.54104 21.472 8.09152 23.1648 8.09152 25.0001C8.09152 26.8354 8.54104 28.5281 9.44009 30.0782C10.3391 31.6283 11.5668 32.856 13.1231 33.7612C14.6794 34.6665 16.3752 35.1191 18.2106 35.1191C20.4551 35.1191 22.4888 34.4371 24.3117 33.073C22.8236 31.6965 21.8006 30.0596 21.2426 28.1623H22.1726C22.743 29.8736 23.6855 31.3183 25 32.4964C26.3145 31.3183 27.2569 29.8736 27.8274 28.1623H28.7574C28.1994 30.0596 27.1763 31.6965 25.6882 33.073C27.5111 34.4371 29.5449 35.1191 31.7894 35.1191C33.6247 35.1191 35.3206 34.6665 36.8768 33.7612C38.4331 32.856 39.6608 31.6283 40.5599 30.0782C41.4589 28.5281 41.9084 26.8354 41.9084 25.0001ZM46.4286 13.0953V36.9048C46.4286 37.5497 46.1929 38.1077 45.7217 38.5789C45.2505 39.0502 44.6924 39.2858 44.0476 39.2858H5.95236C5.30752 39.2858 4.74949 39.0502 4.27826 38.5789C3.80703 38.1077 3.57141 37.5497 3.57141 36.9048V13.0953C3.57141 12.4505 3.80703 11.8924 4.27826 11.4212C4.74949 10.95 5.30752 10.7144 5.95236 10.7144H44.0476C44.6924 10.7144 45.2505 10.95 45.7217 11.4212C46.1929 11.8924 46.4286 12.4505 46.4286 13.0953Z" fill="black"/>
</svg>
