<svg width="50" height="50" viewBox="0 0 50 50" fill="none" xmlns="http://www.w3.org/2000/svg">
<path d="M40.3088 26.7486H37.7418C37.9154 26.2898 38.3246 25.1799 38.9695 23.419L39.0252 23.2515C39.0747 23.1274 39.1367 22.9662 39.2113 22.7678C39.2856 22.5695 39.3414 22.4083 39.3788 22.2842L39.602 23.3072L40.3088 26.7486ZM13.4487 25.5395L12.3698 20.0521C12.2333 19.3825 11.7683 19.0477 10.9747 19.0477H5.98956L5.95235 19.2895C9.809 20.2691 12.3078 22.3525 13.4487 25.5395ZM16.7783 19.0477L13.7649 27.195L13.4487 25.5395C13.1262 24.6714 12.5993 23.8685 11.8677 23.1306C11.1361 22.3928 10.3238 21.8441 9.43095 21.4844L11.9421 30.971H15.1973L20.0522 19.0477H16.7783ZM19.3638 30.9896H22.4516L24.3861 19.0477H21.2983L19.3638 30.9896ZM33.6496 19.3453C32.7939 19.0105 31.87 18.8431 30.8779 18.8431C29.3527 18.8431 28.1064 19.2089 27.1391 19.9405C26.1719 20.6722 25.682 21.6209 25.6696 22.7865C25.6577 24.0514 26.5568 25.1303 28.3668 26.0231C28.962 26.3083 29.3775 26.5626 29.6131 26.7858C29.8488 27.0089 29.9667 27.2507 29.9667 27.5112C29.9667 27.8832 29.7807 28.1685 29.4087 28.3669C29.0366 28.5652 28.6088 28.6644 28.1252 28.6644C27.0587 28.6644 26.0914 28.4598 25.2234 28.0506L24.8142 27.8459L24.3863 30.5245C25.304 30.9461 26.4511 31.1569 27.8276 31.1569C29.4396 31.1688 30.7324 30.803 31.7059 30.0595C32.6794 29.3154 33.1785 28.3233 33.2033 27.0832C33.2033 25.7688 32.3352 24.6899 30.5991 23.8466C29.9915 23.5366 29.5513 23.2762 29.2784 23.0654C29.0056 22.8547 28.8692 22.6191 28.8692 22.3586C28.8692 22.0857 29.0211 21.847 29.3249 21.6424C29.6288 21.4379 30.0659 21.3356 30.6363 21.3356C31.5044 21.3237 32.2732 21.4725 32.9429 21.7821L33.2218 21.931L33.6496 19.3453ZM41.5551 19.0478H39.1741C38.368 19.0478 37.8286 19.3826 37.5558 20.0523L32.9799 30.9898H36.2165L36.8676 29.2041H40.811C40.8729 29.4769 40.9969 30.0721 41.183 30.9898H44.0476L41.5551 19.0478ZM46.4286 13.0953V36.9048C46.4286 37.5497 46.1929 38.1077 45.7217 38.5789C45.2505 39.0502 44.6924 39.2858 44.0476 39.2858H5.95236C5.30752 39.2858 4.74949 39.0502 4.27826 38.5789C3.80703 38.1077 3.57141 37.5497 3.57141 36.9048V13.0953C3.57141 12.4505 3.80703 11.8924 4.27826 11.4212C4.74949 10.95 5.30752 10.7144 5.95236 10.7144H44.0476C44.6924 10.7144 45.2505 10.95 45.7217 11.4212C46.1929 11.8924 46.4286 12.4505 46.4286 13.0953Z" fill="black"/>
</svg>
